<svg width="20" height="20" viewBox="0 0 20 20" fill="#FF4600" xmlns="http://www.w3.org/2000/svg"><path d="M14.8628 20H5.13716C2.29427 20 0 17.7057 0 14.8628V5.13716C0 2.29427 2.29427 0 5.13716 0H14.8628C17.7057 0 20 2.29427 20 5.13716V14.8628C20 17.6808 17.7057 20 14.8628 20Z" fill="inherit"></path><path d="M14.8628 5.28678C15.0873 5.5611 15.2369 5.91023 15.2369 6.30923C15.2369 6.63342 15.1372 6.90773 14.9875 7.15711C14.8878 7.30673 14.7631 7.45636 14.6135 7.63092C14.1646 8.0798 13.7905 8.42893 13.7905 8.42893C13.6658 8.55362 13.5162 8.57855 13.3416 8.45386L12.0698 7.55611C11.9701 7.45636 11.995 7.35661 12.1197 7.23192C12.2195 7.13217 12.9676 6.48379 12.6434 6.1596C12.5935 6.10972 12.5187 6.05985 12.419 6.03491C11.8703 5.86035 11.2219 5.93516 10.6733 6.08479C9.47631 6.40898 8.47881 7.20698 7.80549 8.25437C7.43143 8.82793 7.18205 9.65087 7.18205 10.4489C7.18205 11.1721 7.38155 11.7955 7.65586 12.2693C7.98005 12.7681 8.35411 13.192 8.87781 13.4663C9.42643 13.7656 10.0748 13.9402 10.798 13.9152C11.2219 13.8903 11.7207 13.8155 12.2444 13.591C12.3441 13.5661 12.4439 13.5661 12.5187 13.616L13.7905 14.5387C13.8903 14.6135 13.8903 14.7382 13.7656 14.813C13.6409 14.8878 12.9426 15.3117 12.7182 15.4115C11.8703 15.7855 11.0973 15.985 10.0748 15.985C9.15212 15.985 8.30424 15.7855 7.45636 15.3367C6.60848 14.8878 5.93516 14.2394 5.48628 13.4165C5.01247 12.5935 4.76309 11.7456 4.76309 10.6484C4.76309 9.70075 5.03741 8.72818 5.38653 7.95511C5.7606 7.18204 6.3591 6.3591 7.00748 5.78554C7.63092 5.23691 8.12967 4.91272 8.85287 4.56359C9.65087 4.21446 10.5486 3.99003 11.4963 3.99003C12.0449 3.99003 12.9426 4.08978 13.7406 4.4389C14.1895 4.66334 14.5885 4.96259 14.8628 5.28678Z" fill="#FFE5E8"></path></svg>